<?xml version="1.0" encoding="utf-8" ?>
<svg xmlns="http://www.w3.org/2000/svg" xmlns:xlink="http://www.w3.org/1999/xlink" width="1024" height="1024">
	<path fill="#0D0D0D" d="M-0 -0L1024 0L1024 1024L-0 1024L0 -0Z"/>
	<path fill="white" d="M624.756 713.527L686.05 713.502L681.696 731.123L680.177 736.565L629.925 736.501C628.874 735.128 628.632 731.455 628.248 729.58L624.756 713.527Z"/>
	<path fill="#D9991E" d="M575.863 500.25C581.57 499.304 588.468 500.04 594.289 500.042L635.761 500.081L640.701 522.018L579.737 522.059C579.023 517.16 574.532 504.135 575.863 500.25Z"/>
	<path fill="#D9991E" d="M672.336 500.248L739.734 500.371L734.494 522.081L667.207 521.983L672.336 500.248Z"/>
	<path fill="white" d="M615.033 669.994L695.755 670.186L691.417 688.891L690.624 691.548C688.248 692.93 627.782 692.086 619.662 692.09L615.033 669.994Z"/>
	<path fill="#D9991E" d="M749.022 500.05L835.556 500.338L835.382 522.028L749.203 522.021L749.022 500.05Z"/>
	<path fill="white" d="M749.37 758.051L835.797 758.025L835.772 780.326L749.236 780.1L749.37 758.051Z"/>
	<path fill="#D9991E" d="M748.99 541.906L835.471 541.978L835.349 564.077L748.958 564.239L748.99 541.906Z"/>
	<path fill="white" d="M750.538 670.25L835.648 670.15L835.746 686.251C835.739 687.956 836.145 690.769 835.255 692.25L833.75 692.306L748.985 692.288L749.099 670.75L750.538 670.25Z"/>
	<path fill="#D9991E" d="M748.963 583.477L835.545 583.532L835.505 606.031L748.945 606.019L748.963 583.477Z"/>
	<path fill="white" d="M781.893 626.25L836.046 626.383L836.05 648.729L803.25 648.861L749.074 648.671L749.178 626.355L781.893 626.25Z"/>
	<path fill="white" d="M188.03 374.995L281.629 374.986L281.571 395.962L188.024 395.962L188.03 374.995Z"/>
	<path fill="#D9991E" d="M188.031 458.547L281.542 458.68L281.458 480.49L188.04 480.42L188.031 458.547Z"/>
	<path fill="white" d="M749.125 713.227L835.868 713.46L835.928 737.041L749.045 736.724L749.125 713.227Z"/>
	<path fill="white" d="M188.388 669.519L281.006 669.551L280.972 691.727L188.297 691.677L188.388 669.519Z"/>
	<path fill="#D9991E" d="M187.984 416.008L281.28 415.975L281.339 438.205L187.982 438.372L187.984 416.008Z"/>
	<path fill="white" d="M461.879 756.958L560.163 757.008L559.955 778.235L461.709 778.311L461.879 756.958Z"/>
	<path fill="#D9991E" d="M188.073 583.32L281.02 583.426L281.018 605.997L188.078 605.967L188.073 583.32Z"/>
	<path fill="#D9991E" d="M462.083 500.12L560.513 500.319L560.512 522.03L462.037 521.991L462.083 500.12Z"/>
	<path fill="white" d="M462.117 670.14L560.417 670.221L560.361 691.98L461.989 692.053L462.117 670.14Z"/>
	<path fill="white" d="M188.07 625.416L281.05 625.479L281.017 648.57L188.065 648.629L188.07 625.416Z"/>
	<path fill="#D9991E" d="M462.154 541.888L560.338 541.962L560.178 564.041L462.088 564.059L462.154 541.888Z"/>
	<path fill="white" d="M671.117 626.25L706.657 626.222L701.18 648.707L640.25 648.768L608.732 648.551L604.114 626.278L671.117 626.25Z"/>
	<path fill="white" d="M461.941 713.412L560.506 713.301L560.489 735.503L461.831 735.564L461.941 713.412Z"/>
	<path fill="white" d="M462.105 626.188L560.363 626.082L560.247 648.679L461.995 648.427L462.105 626.188Z"/>
	<path fill="#D9991E" d="M462.207 583.458L560.577 583.487L560.55 606.028L462.155 606.004L462.207 583.458Z"/>
	<path fill="white" d="M735.314 245.344L836.021 245.447L836.071 266.554L828.875 266.622L729.381 266.471L735.314 245.344Z"/>
	<path fill="white" d="M461.629 245.045L573.023 245.007L577.148 266.743L461.581 266.512L461.629 245.045Z"/>
	<path fill="white" d="M723.765 287.931L836.028 287.83C836.021 291.619 836.868 308.192 835.43 310.339L831.625 310.44L718.178 310.426L723.765 287.931Z"/>
	<path fill="#D9991E" d="M594.943 583.55L717.164 583.591L712.647 601.116L711.101 605.988L599.772 606.065L594.943 583.55Z"/>
	<path fill="white" d="M711.711 332.571L835.863 332.786C836.113 339.655 836.587 347.549 835.812 354.344L831.125 354.5L706.007 354.449L711.711 332.571Z"/>
	<path fill="white" d="M461.581 287.993L582.331 287.895L588.162 310.516L461.583 310.592L461.581 287.993Z"/>
	<path fill="white" d="M701.347 375.048L835.904 375.002C835.949 378.502 836.727 393.726 835.412 395.847L832.625 395.974L696.773 396.049L701.347 375.048Z"/>
	<path fill="white" d="M461.623 332.406L593.918 332.541L599.175 354.454L461.63 354.499L461.623 332.406Z"/>
	<path fill="white" d="M461.677 375.039L604.14 375.05L609.366 395.76L461.693 395.954L461.677 375.039Z"/>
	<path fill="#D9991E" d="M584.864 541.993L727.847 542.058L722.912 560.126C722.554 561.55 722.348 563.099 721.385 564.25L590.148 564.344L584.864 541.993Z"/>
	<path fill="#D9991E" d="M691.596 416.172L835.76 416.008C835.824 419.413 836.544 436.737 835.25 438.472L831.227 438.573L686.097 438.545L691.596 416.172Z"/>
	<path fill="#D9991E" d="M682.029 458.649L835.628 458.786L835.595 475.164C835.592 476.734 835.985 479.272 835 480.451L830.75 480.525L676.661 480.396L682.029 458.649Z"/>
	<path fill="#D9991E" d="M461.964 416.015L614.683 416.001L620.261 438.494L461.918 438.497L461.964 416.015Z"/>
	<path fill="#D9991E" d="M462.097 458.595L625.752 458.869L630.766 480.459L462.065 480.424L462.097 458.595Z"/>
	<path fill="#D9991E" d="M188.161 500.098L396.131 500.16L396.005 522.005L188.163 521.943L188.161 500.098Z"/>
	<path fill="#D9991E" d="M188.016 541.975L396.048 542.024L396.042 564.066L188.051 564.065L188.016 541.975Z"/>
	<path fill="white" d="M230.762 756.752L440.549 756.971C441.367 763.831 440.921 771.158 440.926 778.081L398.894 778.254L188.625 778.311L188.773 756.814L230.762 756.752Z"/>
	<path fill="white" d="M187.978 245.007L440.965 245.323L441.007 266.7L187.973 266.534L187.978 245.007Z"/>
	<path fill="white" d="M205.414 332.742L440.973 332.938L440.926 354.703L423.25 354.859L187.963 354.853L187.982 332.834L205.414 332.742Z"/>
	<path fill="white" d="M347.375 287.75L440.956 287.786L440.835 310.574L281.25 310.658L187.784 310.662L187.758 287.998L347.375 287.75Z"/>
	<path fill="white" d="M188.424 712.955L440.263 713.416C440.93 715.315 440.602 717.946 440.613 719.965L440.481 735.731L188.271 735.991L188.424 712.955Z"/>
</svg>
